<svg width="1438" height="147" viewBox="0 0 1438 147" fill="none" xmlns="http://www.w3.org/2000/svg">
<path d="M103.375 16.3189C88.7823 16.3189 82.4315 24.4609 82.0938 28.5817C81.756 24.4609 75.4054 16.3189 60.8125 16.3189M-24.3125 94.7226C-12.1518 114.297 24.3301 128.611 50.6783 106.977C77.0266 85.3427 57.7721 48.2553 19.2632 62.6782C55.7453 69.8896 44.3631 101.481 19.2632 103.886C1.56002 105.583 -18.057 92.1542 -17.2188 72.9803C-15.192 26.621 58.7857 29.7116 82.0938 58.5574C105.402 29.7116 179.379 26.621 181.406 72.9803C182.244 92.1542 162.627 105.583 144.924 103.886C119.824 101.481 108.442 69.8896 144.924 62.6782C106.415 48.2553 87.1607 85.3427 113.509 106.977C139.857 128.611 176.339 114.189 188.5 94.6146C219.915 136.853 267.545 122.195 294.906 108.115C322.268 122.195 369.897 136.961 401.312 94.7226C413.473 114.297 449.955 128.611 476.304 106.977C502.652 85.3427 483.397 48.2553 444.888 62.6782C481.371 69.8896 469.988 101.481 444.888 103.886C427.185 105.583 407.568 92.1542 408.406 72.9803C410.433 26.621 484.411 29.7116 507.719 58.5574C531.027 29.7116 605.004 26.621 607.031 72.9803C607.869 92.1542 588.252 105.583 570.549 103.886C545.449 101.481 534.067 69.8896 570.549 62.6782C532.04 48.2553 512.786 85.3427 539.134 106.977C565.482 128.611 601.964 114.297 614.125 94.7226C645.54 136.961 693.169 122.195 720.531 108.115C747.893 122.195 795.522 136.961 826.937 94.7226C839.098 114.297 875.58 128.611 901.928 106.977C928.277 85.3427 909.022 48.2553 870.513 62.6782C906.995 69.8896 895.613 101.481 870.513 103.886C852.81 105.583 833.193 92.1542 834.031 72.9803C836.058 26.621 910.035 29.7116 933.344 58.5574C956.652 29.7116 1030.63 26.621 1032.66 72.9803C1033.49 92.1542 1013.88 105.583 996.174 103.886C971.074 101.481 959.692 69.8896 996.174 62.6782C957.665 48.2553 938.411 85.3427 964.759 106.977C991.107 128.611 1027.59 114.189 1039.75 94.6146C1071.16 136.853 1118.79 122.195 1146.16 108.115C1173.52 122.195 1221.15 136.961 1252.56 94.7226C1264.72 114.297 1301.21 128.611 1327.55 106.977C1353.9 85.3427 1334.65 48.2553 1296.14 62.6782C1332.62 69.8896 1321.24 101.481 1296.14 103.886C1278.44 105.583 1258.82 92.1542 1259.66 72.9803C1261.68 26.621 1335.66 29.7116 1358.97 58.5574C1382.28 29.7116 1456.25 26.621 1458.28 72.9803C1459.12 92.1542 1439.5 105.583 1421.8 103.886C1396.7 101.481 1385.32 69.8896 1421.8 62.6782C1383.29 48.2553 1364.04 85.3427 1390.38 106.977C1416.73 128.611 1453.21 114.297 1465.38 94.7226M-24.3125 51.3459C7.10268 9.10748 54.7321 23.8738 82.0938 37.9533C109.455 23.8738 157.085 9.10748 188.5 51.3459C200.661 31.772 237.143 17.4571 263.491 39.0915C289.839 60.7258 270.585 97.8132 232.076 83.3903C268.558 76.1789 257.176 44.5879 232.076 42.1821C214.373 40.4852 194.755 53.9143 195.594 73.0883C197.621 119.448 271.598 116.357 294.906 87.5111C318.214 116.357 392.192 119.448 394.219 73.0883C395.057 53.9143 375.44 40.4852 357.737 42.1821C332.637 44.5879 321.254 76.1789 357.737 83.3903C319.228 97.8132 299.973 60.7258 326.321 39.0915C352.67 17.4571 389.152 31.772 401.312 51.3459C432.728 9.10748 480.357 23.8738 507.719 37.9533C535.08 23.8738 582.71 9.2155 614.125 51.4539C626.285 31.88 662.768 17.4571 689.116 39.0915C715.464 60.7258 696.21 97.8132 657.701 83.3903C694.183 76.1789 682.801 44.5879 657.701 42.1821C639.998 40.4852 620.38 53.9143 621.219 73.0883C623.246 119.448 697.223 116.357 720.531 87.5111C743.839 116.357 817.817 119.448 819.844 73.0883C820.682 53.9143 801.064 40.4852 783.361 42.1821C758.261 44.5879 746.879 76.1789 783.361 83.3903C744.852 97.8132 725.598 60.7258 751.946 39.0915C778.295 17.4571 814.777 31.772 826.937 51.3459C858.352 9.10748 905.982 23.8738 933.344 37.9533C960.705 23.8738 1008.33 9.2155 1039.75 51.4539C1051.91 31.88 1088.39 17.4571 1114.74 39.0915C1141.09 60.7258 1121.83 97.8132 1083.33 83.3903C1119.81 76.1789 1108.43 44.5879 1083.33 42.1821C1065.62 40.4852 1046.01 53.9143 1046.84 73.0883C1048.87 119.448 1122.85 116.357 1146.16 87.5111C1169.46 116.357 1243.44 119.448 1245.47 73.0883C1246.31 53.9143 1226.69 40.4852 1208.99 42.1821C1183.89 44.5879 1172.5 76.1789 1208.99 83.3903C1170.48 97.8132 1151.22 60.7258 1177.57 39.0915C1203.92 17.4571 1240.4 31.772 1252.56 51.3459C1283.98 9.10748 1331.61 23.8738 1358.97 37.9533C1386.33 23.8738 1433.96 9.2155 1465.38 51.4539M1380.25 16.3189C1365.66 16.3189 1359.31 24.4609 1358.97 28.5817C1358.63 24.4609 1352.28 16.3189 1337.69 16.3189M1167.44 129.75C1152.84 129.75 1146.49 121.608 1146.16 117.487C1145.82 121.608 1139.47 129.75 1124.88 129.75M954.625 16.3189C940.032 16.3189 933.681 24.4609 933.344 28.5817C933.006 24.4609 926.655 16.3189 912.062 16.3189M741.812 129.75C727.22 129.75 720.869 121.608 720.531 117.487C720.193 121.608 713.843 129.75 699.25 129.75M529 16.3189C514.407 16.3189 508.057 24.4609 507.719 28.5817C507.381 24.4609 501.03 16.3189 486.438 16.3189M316.188 129.75C301.595 129.75 295.244 121.608 294.906 117.487C294.568 121.608 288.218 129.75 273.625 129.75M114.522 123.46C111.482 114.189 101.348 109.037 91.2141 108.007C94.9299 113.158 103.172 123.46 114.522 123.46ZM82.0938 116.795C82.0938 116.795 88.2325 119.439 88.2325 130.771C88.2325 142.104 82.0938 143.034 82.0938 143.034C82.0938 143.034 75.9548 142.104 75.9548 130.771C75.9548 119.439 82.0938 116.795 82.0938 116.795ZM49.665 123.46C52.7052 114.189 62.8392 109.037 72.9731 108.007C69.2574 113.158 61.015 123.46 49.665 123.46ZM1391.4 123.46C1388.36 114.189 1378.22 109.037 1368.09 108.007C1371.81 113.158 1380.05 123.46 1391.4 123.46ZM1358.97 116.795C1358.97 116.795 1365.11 119.439 1365.11 130.771C1365.11 142.104 1358.97 143.034 1358.97 143.034C1358.97 143.034 1352.83 142.104 1352.83 130.771C1352.83 119.439 1358.97 116.795 1358.97 116.795ZM1326.54 123.46C1329.58 114.189 1339.71 109.037 1349.85 108.007C1346.13 113.158 1337.89 123.46 1326.54 123.46ZM1178.58 22.6082C1175.54 31.88 1165.41 37.0311 1155.28 38.0613C1158.99 32.9102 1167.23 22.6082 1178.58 22.6082ZM1146.16 29.2731C1146.16 29.2731 1152.29 26.6293 1152.29 15.297C1152.29 3.96476 1146.16 3.03427 1146.16 3.03427C1146.16 3.03427 1140.02 3.96476 1140.02 15.297C1140.02 26.6293 1146.16 29.2731 1146.16 29.2731ZM1113.73 22.6082C1116.77 31.88 1126.9 37.0311 1137.04 38.0613C1133.32 32.9102 1125.08 22.6082 1113.73 22.6082ZM965.772 123.46C962.732 114.189 952.598 109.037 942.464 108.007C946.18 113.158 954.422 123.46 965.772 123.46ZM933.344 116.795C933.344 116.795 939.482 119.439 939.482 130.771C939.482 142.104 933.344 143.034 933.344 143.034C933.344 143.034 927.205 142.104 927.205 130.771C927.205 119.439 933.344 116.795 933.344 116.795ZM900.915 123.46C903.955 114.189 914.089 109.037 924.223 108.007C920.507 113.158 912.265 123.46 900.915 123.46ZM752.96 22.6082C749.92 31.88 739.786 37.0311 729.652 38.0613C733.367 32.9102 741.61 22.6082 752.96 22.6082ZM720.531 29.2731C720.531 29.2731 726.67 26.6293 726.67 15.297C726.67 3.96476 720.531 3.03427 720.531 3.03427C720.531 3.03427 714.392 3.96476 714.392 15.297C714.392 26.6293 720.531 29.2731 720.531 29.2731ZM688.103 22.6082C691.143 31.88 701.276 37.0311 711.41 38.0613C707.695 32.9102 699.453 22.6082 688.103 22.6082ZM540.147 123.46C537.107 114.189 526.973 109.037 516.839 108.007C520.555 113.158 528.797 123.46 540.147 123.46ZM507.719 116.795C507.719 116.795 513.858 119.439 513.858 130.771C513.858 142.104 507.719 143.034 507.719 143.034C507.719 143.034 501.58 142.104 501.58 130.771C501.58 119.439 507.719 116.795 507.719 116.795ZM475.29 123.46C478.33 114.189 488.464 109.037 498.598 108.007C494.882 113.158 486.64 123.46 475.29 123.46ZM327.335 22.6082C324.295 31.88 314.161 37.0311 304.027 38.0613C307.742 32.9102 315.985 22.6082 327.335 22.6082ZM294.906 29.2731C294.906 29.2731 301.045 26.6293 301.045 15.297C301.045 3.96476 294.906 3.03427 294.906 3.03427C294.906 3.03427 288.767 3.96476 288.767 15.297C288.767 26.6293 294.906 29.2731 294.906 29.2731ZM262.478 22.6082C265.518 31.88 275.652 37.0311 285.786 38.0613C282.07 32.9102 273.828 22.6082 262.478 22.6082Z" stroke="#E8FFF1" stroke-width="6"/>
</svg>
