<svg width="446" height="523" viewBox="0 0 446 523" fill="none" xmlns="http://www.w3.org/2000/svg">
<path d="M57.1249 344.663C78.6833 312.569 7.99073 301.03 7.99067 344.663C7.99061 388.298 58.6287 396.832 85.7024 364.223C110.377 334.504 80.6886 284.962 42.0842 280.447C3.68771 275.956 -15.3949 182.816 40.0785 168.072C48.1036 165.939 54.9998 164.873 61.1356 164.96M61.1356 164.96C79.5328 165.221 91.0944 175.851 105.757 199.176C108.599 203.57 109.783 208.976 109.628 214.742M61.1356 164.96C85.5353 136.905 108.765 80.2922 42.0842 66.2452M72.1658 209.711C49.6044 183.624 21.5279 220.246 49.6044 249.846C76.9848 278.711 108.882 242.551 109.628 214.742M109.628 214.742C127.222 236.147 178.594 274.302 220.068 226.281C271.208 167.069 182.041 83.0513 138.346 146.012C113.278 182.133 162.411 233.806 187.981 206.715C218.02 174.889 173.943 150.026 162.411 173.103M42.0842 66.2452C5.98585 66.2452 -4.44445 129.457 33.5602 129.457C57.1249 129.457 57.1246 104.874 49.6044 97.3493M42.0842 66.2452C22.0293 56.3788 -5.04516 30.1244 13.5054 8.55217C24.9325 -4.73625 44.0896 14.0706 40.0785 26.6126M102.575 394.545C134.501 373.08 145.979 443.466 102.575 443.466C59.1703 443.466 50.6813 393.048 83.1183 366.092C112.68 341.525 161.962 371.084 166.454 409.52C170.921 447.75 263.57 466.75 278.237 411.517C280.359 403.527 281.419 396.661 281.332 390.552M281.332 390.552C281.072 372.235 270.499 360.723 247.297 346.124C242.926 343.295 237.548 342.116 231.812 342.27M281.332 390.552C309.24 366.258 365.555 343.129 379.528 409.52M236.817 379.57C262.767 402.033 226.337 429.987 196.894 402.033C168.18 374.772 204.15 343.013 231.812 342.27M231.812 342.27C210.52 324.752 172.566 273.604 220.334 232.31C279.235 181.393 362.81 270.172 300.181 313.677C264.25 338.637 212.849 289.716 239.797 264.258C271.456 234.349 296.188 278.235 273.233 289.716M379.528 409.52C379.528 445.462 316.649 455.847 316.649 418.007C316.649 394.545 341.102 394.545 348.587 402.033M379.528 409.52C389.342 429.488 415.458 456.445 436.917 437.975C450.136 426.598 431.428 407.524 418.952 411.517M110.487 265.319C124.598 258.168 142.103 263.863 154.885 274.281C144.725 275.934 123.479 278.311 110.487 265.319ZM155.249 294.797C155.249 294.797 145.191 290.801 132.198 303.794C119.205 316.787 125.165 324.88 125.165 324.88C125.165 324.88 133.259 330.84 146.252 317.848C159.244 304.855 155.249 294.797 155.249 294.797ZM184.727 339.558C191.877 325.448 186.183 307.942 175.764 295.161C174.112 305.32 171.735 326.566 184.727 339.558Z" stroke="#D3FBE3" stroke-width="8" stroke-linecap="round"/>
</svg>
