<svg width="445" height="523" viewBox="0 0 445 523" fill="none" xmlns="http://www.w3.org/2000/svg">
<path d="M388.32 177.383C366.762 209.478 437.455 221.016 437.455 177.383C437.455 133.748 386.817 125.215 359.743 157.823C335.069 187.542 364.757 237.084 403.361 241.599C441.758 246.09 460.84 339.23 405.367 353.974C397.342 356.107 390.446 357.173 384.31 357.086M373.28 312.335C395.841 338.422 423.917 301.8 395.841 272.201C368.46 243.335 336.564 279.495 335.817 307.304M384.31 357.086C365.912 356.825 354.351 346.195 339.688 322.87C336.847 318.476 335.662 313.07 335.817 307.304M384.31 357.086C359.91 385.141 336.68 441.754 403.361 455.801M403.361 455.801C439.459 455.801 449.89 392.589 411.885 392.589C388.32 392.589 388.321 417.172 395.841 424.697M403.361 455.801C423.416 465.667 450.49 491.922 431.94 513.494C420.513 526.782 401.356 507.975 405.367 495.434M335.817 307.304C318.223 285.899 266.851 247.744 225.377 295.765C174.238 354.978 263.404 438.995 307.1 376.034C332.168 339.913 283.034 288.24 257.464 315.331C227.425 347.157 271.503 372.02 283.034 348.943M342.87 127.501C310.944 148.966 299.467 78.5804 342.87 78.5804C386.275 78.5803 394.764 128.998 362.327 155.954C332.765 180.521 283.483 150.962 278.992 112.526C274.524 74.2961 181.875 55.2964 167.208 110.529C165.087 118.519 164.026 125.385 164.113 131.494M208.629 142.476C182.679 120.013 219.108 92.0588 248.552 120.013C277.265 147.275 241.296 179.033 213.633 179.776M164.113 131.494C164.373 149.811 174.947 161.323 198.149 175.922C202.519 178.751 207.898 179.93 213.633 179.776M164.113 131.494C136.205 155.788 79.8907 178.917 65.9176 112.526M65.9176 112.526C65.9176 76.5843 128.796 66.1993 128.796 104.039C128.796 127.501 104.344 127.501 96.858 120.013M65.9176 112.526C56.1032 92.5579 29.9869 65.6012 8.52821 84.0711C-4.69027 95.4485 14.0176 114.522 26.4936 110.529M213.633 179.776C234.925 197.294 272.88 248.442 225.111 289.736C166.21 340.653 82.6352 251.874 145.265 208.369C181.195 183.409 232.596 232.33 205.648 257.788C173.99 287.697 149.257 243.811 172.213 232.33M334.958 256.727C320.848 263.878 303.342 258.184 290.561 247.765C300.72 246.112 321.966 243.735 334.958 256.727ZM290.197 227.249C290.197 227.249 300.255 231.245 313.247 218.252C326.24 205.259 320.28 197.166 320.28 197.166C320.28 197.166 312.186 191.206 299.194 204.198C286.201 217.191 290.197 227.249 290.197 227.249ZM260.718 182.488C253.568 196.598 259.262 214.104 269.681 226.885C271.333 216.726 273.71 195.48 260.718 182.488ZM486.277 334.335C470.55 332.637 458.979 318.32 453.944 302.618C463.361 306.771 482.469 316.361 486.277 334.335ZM464.823 285.22C464.823 285.22 471.077 294.053 489.052 290.244C507.027 286.435 506.443 276.401 506.443 276.401C506.443 276.401 502.907 266.992 484.932 270.801C466.957 274.61 464.823 285.22 464.823 285.22ZM464.513 231.625C450.826 239.556 446.056 257.336 447.823 273.731C454.746 266.115 468.321 249.599 464.513 231.625ZM173 35.7835C177.921 50.8172 194.326 59.1692 210.731 60.8396C204.716 52.4876 191.373 35.7835 173 35.7835ZM225.495 46.5903C225.495 46.5903 215.558 42.3035 215.558 23.929C215.558 5.55459 225.495 4.04584 225.495 4.04584C225.495 4.04584 235.433 5.55459 235.433 23.929C235.433 42.3035 225.495 46.5903 225.495 46.5903ZM277.991 35.7835C273.069 50.8172 256.664 59.1692 240.259 60.8396C246.275 52.4876 259.617 35.7835 277.991 35.7835Z" stroke="#D3FBE3" stroke-width="8" stroke-linecap="round"/>
</svg>
