<svg width="445" height="523" viewBox="0 0 445 523" fill="none" xmlns="http://www.w3.org/2000/svg">
<path d="M56.1249 177.383C77.6833 209.478 6.99073 221.016 6.99067 177.383C6.99061 133.748 57.6287 125.215 84.7024 157.823C109.377 187.542 79.6886 237.084 41.0842 241.599C2.68771 246.09 -16.3949 339.23 39.0785 353.974C47.1036 356.107 53.9998 357.173 60.1356 357.086M60.1356 357.086C78.5328 356.825 90.0944 346.195 104.757 322.87C107.599 318.476 108.783 313.07 108.628 307.304M60.1356 357.086C84.5353 385.141 107.765 441.754 41.0842 455.801M71.1658 312.335C48.6044 338.422 20.5279 301.8 48.6044 272.201C75.9848 243.335 107.882 279.495 108.628 307.304M108.628 307.304C126.222 285.899 177.594 247.744 219.068 295.765C270.208 354.978 181.041 438.995 137.346 376.034C112.278 339.913 161.411 288.24 186.981 315.331C217.02 347.157 172.943 372.02 161.411 348.943M41.0842 455.801C4.98585 455.801 -5.44445 392.589 32.5602 392.589C56.1249 392.589 56.1246 417.172 48.6044 424.697M41.0842 455.801C21.0293 465.667 -6.04516 491.922 12.5054 513.494C23.9325 526.782 43.0896 507.975 39.0785 495.434M101.575 127.501C133.501 148.966 144.979 78.5802 101.575 78.5802C58.1703 78.5801 49.6813 128.998 82.1183 155.954C111.68 180.521 160.962 150.962 165.454 112.526C169.921 74.2959 262.57 55.2962 277.237 110.529C279.359 118.519 280.419 125.385 280.332 131.494M280.332 131.494C280.072 149.811 269.499 161.323 246.297 175.922C241.926 178.751 236.548 179.93 230.812 179.776M280.332 131.494C308.24 155.788 364.555 178.917 378.528 112.526M235.817 142.476C261.767 120.013 225.337 92.0586 195.894 120.013C167.18 147.275 203.15 179.033 230.812 179.776M230.812 179.776C209.52 197.294 171.566 248.442 219.334 289.736C278.235 340.653 361.81 251.874 299.181 208.369C263.25 183.409 211.849 232.33 238.797 257.788C270.456 287.697 295.188 243.811 272.233 232.33M378.528 112.526C378.528 76.5841 315.649 66.1991 315.649 104.039C315.649 127.501 340.102 127.501 347.587 120.013M378.528 112.526C388.342 92.5577 414.458 65.601 435.917 84.0709C449.136 95.4483 430.428 114.522 417.952 110.529M109.487 256.727C123.598 263.878 141.103 258.184 153.885 247.765C143.725 246.112 122.479 243.735 109.487 256.727ZM154.249 227.249C154.249 227.249 144.191 231.245 131.198 218.252C118.205 205.259 124.165 197.166 124.165 197.166C124.165 197.166 132.259 191.206 145.252 204.198C158.244 217.191 154.249 227.249 154.249 227.249ZM183.727 182.488C190.877 196.598 185.183 214.104 174.764 226.885C173.112 216.726 170.735 195.48 183.727 182.488Z" stroke="#D3FBE3" stroke-width="8" stroke-linecap="round"/>
</svg>
