<svg width="444" height="523" viewBox="0 0 444 523" fill="none" xmlns="http://www.w3.org/2000/svg">
<path d="M388.32 344.663C366.762 312.569 437.455 301.03 437.455 344.663C437.455 388.298 386.817 396.832 359.743 364.223C335.069 334.504 364.757 284.962 403.361 280.447C441.758 275.956 460.84 182.816 405.367 168.072C397.342 165.939 390.446 164.873 384.31 164.96M373.28 209.711C395.841 183.624 423.917 220.246 395.841 249.846C368.46 278.711 336.564 242.551 335.817 214.742M384.31 164.96C365.912 165.221 354.351 175.851 339.688 199.176C336.847 203.57 335.662 208.976 335.817 214.742M384.31 164.96C359.91 136.905 336.68 80.2922 403.361 66.2452M403.361 66.2452C439.459 66.2452 449.89 129.457 411.885 129.457C388.32 129.457 388.321 104.874 395.841 97.3493M403.361 66.2452C423.416 56.3788 450.49 30.1244 431.94 8.55215C420.513 -4.73627 401.356 14.0706 405.367 26.6126M335.817 214.742C318.223 236.147 266.851 274.302 225.377 226.281C174.238 167.069 263.404 83.0513 307.1 146.012C332.168 182.133 283.034 233.806 257.464 206.715C227.425 174.889 271.503 150.026 283.034 173.103M342.87 394.545C310.944 373.08 299.467 443.466 342.87 443.466C386.275 443.466 394.764 393.048 362.327 366.092C332.765 341.525 283.483 371.084 278.992 409.52C274.524 447.75 181.875 466.75 167.208 411.517C165.087 403.527 164.026 396.661 164.113 390.552M208.629 379.57C182.679 402.033 219.108 429.987 248.552 402.033C277.265 374.772 241.296 343.013 213.633 342.27M164.113 390.552C164.373 372.235 174.947 360.723 198.149 346.124C202.519 343.295 207.898 342.116 213.633 342.27M164.113 390.552C136.205 366.258 79.8907 343.129 65.9176 409.52M65.9176 409.52C65.9176 445.462 128.796 455.847 128.796 418.007C128.796 394.545 104.344 394.545 96.858 402.033M65.9176 409.52C56.1032 429.488 29.9869 456.445 8.52821 437.975C-4.69027 426.598 14.0176 407.524 26.4936 411.517M213.633 342.27C234.925 324.752 272.88 273.604 225.111 232.31C166.21 181.393 82.6352 270.172 145.265 313.677C181.195 338.637 232.596 289.716 205.648 264.258C173.99 234.349 149.257 278.235 172.213 289.716M334.958 265.319C320.848 258.168 303.342 263.863 290.561 274.281C300.72 275.934 321.966 278.311 334.958 265.319ZM290.197 294.797C290.197 294.797 300.255 290.801 313.247 303.794C326.24 316.787 320.28 324.88 320.28 324.88C320.28 324.88 312.186 330.84 299.194 317.848C286.201 304.855 290.197 294.797 290.197 294.797ZM260.718 339.558C253.568 325.448 259.262 307.942 269.681 295.161C271.333 305.32 273.71 326.566 260.718 339.558ZM486.277 187.711C470.55 189.409 458.979 203.726 453.944 219.428C463.361 215.275 482.469 205.685 486.277 187.711ZM464.823 236.826C464.823 236.826 471.077 227.993 489.052 231.802C507.027 235.611 506.443 245.645 506.443 245.645C506.443 245.645 502.907 255.054 484.932 251.245C466.957 247.436 464.823 236.826 464.823 236.826ZM464.513 290.421C450.826 282.49 446.056 264.71 447.823 248.315C454.746 255.931 468.321 272.447 464.513 290.421ZM173 486.263C177.921 471.229 194.326 462.877 210.731 461.206C204.716 469.558 191.373 486.263 173 486.263ZM225.495 475.456C225.495 475.456 215.558 479.743 215.558 498.117C215.558 516.491 225.495 518 225.495 518C225.495 518 235.433 516.491 235.433 498.117C235.433 479.743 225.495 475.456 225.495 475.456ZM277.991 486.263C273.069 471.229 256.664 462.877 240.259 461.206C246.275 469.558 259.617 486.263 277.991 486.263Z" stroke="#D3FBE3" stroke-width="8" stroke-linecap="round"/>
</svg>
